<?xml version="1.0" encoding="utf-8"?>
<!-- Generator: Adobe Illustrator 23.0.0, SVG Export Plug-In . SVG Version: 6.00 Build 0)  -->
<svg version="1.1" id="Layer_1" xmlns="http://www.w3.org/2000/svg" xmlns:xlink="http://www.w3.org/1999/xlink" x="0px" y="0px"
	 viewBox="0 0 500 320" style="enable-background:new 0 0 500 320;" xml:space="preserve">
<style type="text/css">
	.st0{fill:#3B9C47;}
</style>
<g>
	<g>
		<path class="st0" d="M133.7,107.5c-6.2-1.6-12.3-3.6-18.5-4.5C93.6,100,70,115.4,66,138c-3.9,21.7,6.7,41.5,26.2,46.7
			c7.8,2.1,16.4,1.8,24.7,1.9c11.7,0.2,9.8,1.1,10.3-9.7c0.2-5.1,0.7-10.3,2.4-15c5.9-16.5,20.9-21.9,36.4-20.4
			c4.7,0.4,9.3,1.2,13.9,2.4c6,1.6,8.7,6.5,7.6,12.9c-0.8,4.6-4.6,7.3-10.6,7.1c-3.9-0.1-7.7-0.8-11.6-0.8
			c-8.3-0.1-12.8,3.9-13.9,12.2c0,0.3-0.1,0.5-0.1,0.8c-1,10-0.9,10.1,9.1,10.2c3,0,6.1,0.3,9.1,0.7c5.4,0.7,9.7,5.9,9.7,11.3
			c0,5.6-4.5,10.9-10.1,11.4c-4.4,0.4-8.9,0.4-13.3,0.2c-3.5-0.1-4.9,1.2-4.8,4.8c0.2,12.3,0.1,24.7,0,37
			c-0.1,5.6-4.2,10.3-9.4,11.1c-6.2,1-11.6-1.7-13.5-7.1c-0.8-2.3-0.9-4.9-1-7.3c-0.1-10,0-20-0.1-29.9c0-2.5-0.3-4.9-0.4-8
			c-4.3,0-8.5,0-12.6,0c-9.3,0-18.6,0.5-27.6-2.4c-24.2-7.7-39.1-24-43.8-49c-7.5-40.3,23.4-74.2,57.6-78.6c3.3-0.4,6.6-0.9,9.9-0.7
			c4.1,0.3,6-1.2,7.5-5c11.9-29.4,33-49.6,63.6-58c38.8-10.6,72.4-0.3,99.9,29.2c2,2.1,3.8,3.2,6.7,3c39.1-2.5,71.9,22.6,83.9,54.6
			c0.6,1.6,2.5,3.3,4.2,3.7c17,5,29.7,14.9,38.1,30.6c0.8,1.5,3,3,4.6,3.3c33.7,4.2,63.2,32.4,69.8,66.3c8.8,44.9-19.9,89-65.5,98.3
			c-6.2,1.3-12.6,1.6-19,1.6c-102.7,0.1-205.4-0.2-308,0.2c-42.3,0.2-74-27.8-82.9-61.6c-7.2-27.6-1.5-52.5,16-74.9
			c0.1-0.2,0.4-0.2,0,0c3.5,7.4,7.1,14.8,10.4,22.4c0.6,1.3-0.1,3.4-0.7,4.9c-9,21.6-7.6,42.3,6.2,61.3
			c11.8,16.3,28.3,24.7,48.4,24.7c104.5,0.1,209,0.1,313.5,0c29.9,0,56-22.6,59.6-52.1c4.3-36.1-20.2-63.3-50.8-68.1
			c-4.7-0.7-9.6-0.4-14.4-0.2c-2.8,0.1-4.3-0.3-4.5-3.7c-1.1-16.6-16.6-31.1-33.2-31.3c-3.2,0-6.3,0-9.7,0
			c-0.9-12.5-5-23.9-12.9-33.5c-16.6-20.1-37.8-27.4-63.3-21.9c-3.1,0.7-4.7,0.2-6.4-2.5c-11.3-18-27.4-29.3-48.3-33.7
			c-39.1-8.3-78.7,17.3-87,56.4C134.8,98.3,134.3,103.1,133.7,107.5z"/>
		<path class="st0" d="M225.1,264c-23.1,0.1-40.9-15.6-41-39.7c-0.1-23.4,16.5-39.6,41-39.6c26.3,0,40.9,19,40.7,39
			C265.5,247.3,249,263.9,225.1,264z M207.3,224.1c0,11.1,7.6,19.3,17.9,19.3c10,0,17.7-8.3,17.8-19c0-10.8-7.6-18.9-17.8-18.9
			C214.9,205.4,207.3,213.4,207.3,224.1z"/>
		<path class="st0" d="M405,264c-23.7,0.1-40.4-16.5-40.9-39.7c-0.4-20.2,14-39.4,40.5-39.6c24.4-0.1,40.7,16,41.2,39
			C446.3,246.9,428.7,263.9,405,264z M422.7,225.5c0.9-10.4-6-19-16.1-20c-10-1-18.7,6.5-19.6,17.1c-1,10.9,6.7,20.3,17.4,20.7
			C414,243.7,422.3,236.5,422.7,225.5z"/>
		<path class="st0" d="M281,205.7c0-15.2-0.1-30.5,0-45.7c0-5.4,3.6-9.9,8.3-11.1c5.3-1.4,10.7,0.4,13.4,5c1.1,1.9,1.9,4.4,1.9,6.6
			c0.1,30.2,0.1,60.4,0,90.6c0,7.3-5,11.9-12.1,11.8c-6.8-0.1-11.6-4.7-11.6-11.9C280.9,235.9,281,220.8,281,205.7
			C281,205.7,281,205.7,281,205.7z"/>
		<path class="st0" d="M348.7,224.4c0,8.7,0,17.4,0,26.2c0,7.1-4.7,12.1-11.3,12.3c-7.1,0.2-12.7-4.5-12.8-11.8c-0.2-18-0.2-36,0-54
			c0.1-7.4,5.7-12.2,13.1-11.9c6.3,0.2,11,5.5,11,12.6C348.7,206.7,348.7,215.6,348.7,224.4z"/>
		<path class="st0" d="M336.5,175.8c-8.1,0-14.4-5.8-14.6-13.3c-0.2-7.7,6.2-13.9,14.4-13.9c8.2,0,14.6,6,14.6,13.7
			C350.9,169.8,344.5,175.7,336.5,175.8z"/>
	</g>
</g>
</svg>
